<?xml version="1.0" standalone="no"?>
<!DOCTYPE svg PUBLIC "-//W3C//DTD SVG 1.0//EN" "http://www.w3.org/TR/2001/REC-SVG-20010904/DTD/svg10.dtd">
<svg xmlns="http://www.w3.org/2000/svg" xmlns:xlink="http://www.w3.org/1999/xlink" id="body_1" width="175" height="48">

<g transform="matrix(1 0 0 1 0 0)">
	<g>
        <path d="M59.655 32.382C 55.516 32.382 52.161 28.946 52.161 24.708C 52.161 20.470001 55.516 17.035 59.655 17.035C 63.794 17.035 67.147995 20.47 67.147995 24.708C 67.147995 28.946 63.792995 32.382 59.654995 32.382L59.654995 32.382L59.655 32.382zM67.172 33.355C 67.274994 34.531998 68.215996 36.031 69.846 36.031L69.846 36.031L70.799 36.031C 71.16901 36.031 71.472 35.727997 71.472 35.357998L71.472 35.357998L71.472 14.357998L71.468 14.357998C 71.44893 14.00198 71.155525 13.722607 70.799 13.720998L70.799 13.720998L67.844 13.720998C 67.48768 13.7231045 67.194565 14.002204 67.175 14.357998L67.175 14.357998L67.172005 14.357998L67.172005 16.064999C 65.36101 13.829999 62.506004 12.902999 59.643005 12.902999C 53.136005 12.902999 47.861008 18.188 47.861008 24.708C 47.861008 31.228 53.13601 36.513 59.643005 36.513C 62.506004 36.513 65.62601 35.401 67.171005 33.352zM108.05699 32.382C 103.91899 32.382 100.563995 28.946 100.563995 24.708C 100.563995 20.470001 103.919 17.035 108.05699 17.035C 112.19599 17.035 115.550995 20.47 115.550995 24.708C 115.550995 28.946 112.19599 32.382 108.05699 32.382zM115.57399 33.355C 115.677986 34.531998 116.61799 36.031 118.24799 36.031L118.24799 36.031L119.202995 36.031C 119.573 36.031 119.87499 35.727997 119.87499 35.357998L119.87499 35.357998L119.87499 14.357998L119.870995 14.357998C 119.85195 14.002362 119.559135 13.723134 119.202995 13.720998L119.202995 13.720998L116.246994 13.720998C 115.89028 13.722578 115.59657 14.0018215 115.576996 14.357998L115.576996 14.357998L115.574 14.357998L115.574 16.064999C 113.764 13.829999 110.909 12.902999 108.046 12.902999C 101.539 12.902999 96.264 18.188 96.264 24.708C 96.264 31.228 101.539 36.513 108.046 36.513C 110.909 36.513 114.028 35.401 115.574 33.352zM161.205 32.186C 157.14 32.186 153.845 28.818 153.845 24.664001C 153.845 20.510002 157.14 17.142002 161.205 17.142002C 165.269 17.142002 168.564 20.510002 168.564 24.664001C 168.564 28.818 165.269 32.186 161.204 32.186zM168.587 33.14C 168.688 34.294 169.612 35.764 171.21301 35.764L171.21301 35.764L172.15001 35.764C 172.51302 35.764 172.811 35.466 172.811 35.104L172.811 35.104L172.811 14.518L172.807 14.518C 172.78845 14.168385 172.50012 13.8941 172.15001 13.893L172.15001 13.893L169.24802 13.893C 168.89792 13.8941 168.60959 14.168385 168.59102 14.518L168.59102 14.518L168.58702 14.518L168.58702 16.19C 166.80902 14 164.00502 13.091001 161.19302 13.091001C 154.80302 13.091001 149.62102 18.271 149.62102 24.663C 149.62102 31.054 154.80202 36.235 161.19302 36.235C 164.00502 36.235 167.06903 35.145 168.58603 33.136zM145.847 33.387L145.845 22.850002C 145.845 16.910002 142.069 12.903003 136.047 12.903003C 133.173 12.903003 130.54199 14.538003 129.984 15.969003C 129.804 14.861003 129.211 13.697002 127.37399 13.697002L127.37399 13.697002L126.43599 13.697002C 126.07453 13.696994 125.78074 13.988554 125.77799 14.350002L125.77799 14.350002L125.77799 34.716L125.78199 34.716C 125.80263 35.062595 126.089775 35.333084 126.43699 35.333L126.43699 35.333L129.32999 35.333C 129.37364 35.332966 129.41719 35.32861 129.45999 35.32C 129.47899 35.315998 129.497 35.309 129.51498 35.304C 129.53699 35.297 129.55899 35.292 129.57999 35.284C 129.60498 35.273 129.62898 35.259 129.65298 35.245L129.65298 35.245L129.68799 35.225998C 129.71655 35.207092 129.74364 35.18603 129.76898 35.163C 129.77298 35.157997 129.77898 35.156 129.78198 35.151997C 129.90295 35.03811 129.97533 34.881924 129.98398 34.715996L129.98398 34.715996L129.98798 34.715996L129.98798 22.687C 129.98798 19.497 132.59497 16.91 135.80998 16.91C 139.025 16.91 141.63098 19.496 141.63098 22.686L141.63098 22.686L141.63399 32.741L141.63399 32.738003L141.63599 32.765003L141.63599 34.716003L141.63998 34.716003C 141.65999 35.058002 141.94498 35.333004 142.29498 35.333004L142.29498 35.333004L145.188 35.333004C 145.23166 35.33299 145.2752 35.328632 145.31801 35.320004C 145.335 35.317005 145.35101 35.310005 145.36801 35.305004C 145.39201 35.298004 145.41602 35.293003 145.43802 35.283005C 145.46202 35.273006 145.48402 35.260006 145.50601 35.248005C 145.52002 35.240005 145.53401 35.235004 145.54701 35.226006C 145.57353 35.20798 145.5986 35.187923 145.62201 35.166004L145.62201 35.166004L145.64201 35.151005C 145.66861 35.125057 145.69302 35.096962 145.71501 35.067005L145.71501 35.067005L145.72101 35.061005C 145.794 34.960503 145.83638 34.841034 145.843 34.717003L145.843 34.717003L145.843 34.716003L145.847 34.716003L145.847 33.387005zM77.753 30.347C 79.771996 31.717001 81.976 32.381 84.095 32.381C 86.113 32.381 88.199005 31.358 88.199005 29.575C 88.199005 27.195 83.65301 26.825 80.797005 25.875C 77.94 24.925 75.479004 22.961 75.479004 19.78C 75.479004 14.913 79.91 12.903001 84.046005 12.903001C 86.66601 12.903001 89.369 13.749001 91.12201 14.960001C 91.726006 15.407001 91.35801 15.922001 91.35801 15.922001L91.35801 15.922001L89.68501 18.26C 89.49701 18.524 89.168015 18.752 88.696014 18.466C 88.224014 18.181 86.569016 17.034 84.04601 17.034C 81.52201 17.034 80.00301 18.175001 80.00301 19.589C 80.00301 21.284 81.97801 21.817001 84.292015 22.395C 88.32401 23.458 92.722015 24.737 92.722015 29.575C 92.722015 33.864002 88.624016 36.514 84.09502 36.514C 80.66202 36.514 77.74001 35.556 75.28902 33.796C 74.779015 33.296 75.13502 32.831 75.13502 32.831L75.13502 32.831L76.80002 30.504002C 77.139015 30.069002 77.56602 30.221 77.75302 30.347002zM30.153 15.263C 30.153 18.215622 28.577795 20.943956 26.02075 22.420267C 23.463705 23.896576 20.313295 23.896576 17.756248 22.420265C 15.1992035 20.943954 13.624001 18.215622 13.624001 15.263C 13.624001 10.698643 17.324142 6.9985 21.8885 6.9985C 26.452858 6.9985 30.153 10.698643 30.153 15.263C 8.260759 24.727673 5.4951797 26.28628 3.9960241 28.852005C 2.4968681 31.417732 2.496869 34.59227 3.996025 37.157997C 5.495181 39.723724 8.260759 41.28233 11.232 41.236C 15.72782 41.1659 19.335659 37.501366 19.335659 33.005C 19.335659 28.508635 15.72782 24.844103 11.232 24.774C 27.937998 24.773 24.331997 28.458 24.331997 33.005C 24.331997 37.551003 27.937996 41.236 32.385 41.236C 36.831997 41.236 40.438 37.551 40.438 33.005C 40.438 28.458 36.832 24.773 32.385 24.773" stroke="none" fill="#000000" fill-rule="nonzero" fill-opacity="0" />
	</g>
</g>
</svg>
