<svg xmlns="http://www.w3.org/2000/svg" width="175" height="48" fill="currentColor" class="h-full w-auto"><g fill="current"><path d="M59.655 32.382c-4.139 0-7.494-3.436-7.494-7.674s3.355-7.673 7.494-7.673 7.493 3.435 7.493 7.673c0 4.238-3.355 7.674-7.493 7.674zm7.517.973c.103 1.177 1.044 2.676 2.674 2.676h.953c.37 0 .673-.303.673-.673v-21h-.004a.673.673 0 0 0-.669-.637h-2.955a.674.674 0 0 0-.669.637h-.003v1.707c-1.811-2.235-4.666-3.162-7.529-3.162-6.507 0-11.782 5.285-11.782 11.805s5.275 11.805 11.782 11.805c2.863 0 5.983-1.112 7.528-3.161zm40.885-.973c-4.138 0-7.493-3.436-7.493-7.674s3.355-7.673 7.493-7.673c4.139 0 7.494 3.435 7.494 7.673 0 4.238-3.355 7.674-7.494 7.674zm7.517.973c.104 1.177 1.044 2.676 2.674 2.676h.955c.37 0 .672-.303.672-.673v-21h-.004a.673.673 0 0 0-.668-.637h-2.956a.674.674 0 0 0-.67.637h-.003v1.707c-1.81-2.235-4.665-3.162-7.528-3.162-6.507 0-11.782 5.285-11.782 11.805s5.275 11.805 11.782 11.805c2.863 0 5.982-1.112 7.528-3.161zM161.205 32.186c-4.065 0-7.36-3.368-7.36-7.522s3.295-7.522 7.36-7.522c4.064 0 7.359 3.368 7.359 7.522s-3.295 7.522-7.36 7.522zm7.382.954c.101 1.154 1.025 2.624 2.626 2.624h.937c.363 0 .661-.298.661-.66V14.518h-.004a.66.66 0 0 0-.657-.625h-2.902a.66.66 0 0 0-.657.625h-.004v1.672c-1.778-2.19-4.582-3.099-7.394-3.099-6.39 0-11.572 5.18-11.572 11.572 0 6.391 5.181 11.572 11.572 11.572 2.812 0 5.876-1.09 7.393-3.099zM145.847 33.387l-.002-10.537c0-5.94-3.776-9.947-9.798-9.947-2.874 0-5.505 1.635-6.063 3.066-.18-1.108-.773-2.272-2.61-2.272h-.938a.658.658 0 0 0-.658.653V34.716h.004a.656.656 0 0 0 .655.617h2.893a.662.662 0 0 0 .13-.013c.019-.004.037-.011.055-.016.022-.007.044-.012.065-.02.025-.011.049-.025.073-.039l.035-.019a.672.672 0 0 0 .081-.063c.004-.005.01-.007.013-.011a.645.645 0 0 0 .202-.436h.004V22.687c0-3.19 2.607-5.777 5.822-5.777s5.821 2.586 5.821 5.776l.003 10.055v-.003l.002.027v1.951h.004c.02.342.305.617.655.617H145.188a.659.659 0 0 0 .13-.013c.017-.003.033-.01.05-.015.024-.007.048-.012.07-.022.024-.01.046-.023.068-.035.014-.008.028-.013.041-.022a.618.618 0 0 0 .075-.06l.02-.015a.677.677 0 0 0 .073-.084l.006-.006a.644.644 0 0 0 .122-.344v-.001h.004v-1.329zm-68.094-3.04c2.019 1.37 4.223 2.034 6.342 2.034 2.018 0 4.104-1.023 4.104-2.806 0-2.38-4.546-2.75-7.402-3.7-2.857-.95-5.318-2.914-5.318-6.095 0-4.867 4.431-6.877 8.567-6.877 2.62 0 5.323.846 7.076 2.057.604.447.236.962.236.962l-1.673 2.338c-.188.264-.517.492-.989.206-.472-.285-2.127-1.432-4.65-1.432-2.524 0-4.043 1.141-4.043 2.555 0 1.695 1.975 2.228 4.289 2.806 4.032 1.063 8.43 2.342 8.43 7.18 0 4.289-4.098 6.939-8.627 6.939-3.433 0-6.355-.958-8.806-2.718-.51-.5-.154-.965-.154-.965l1.665-2.327c.339-.435.766-.283.953-.157zM30.153 15.263a8.264 8.264 0 1 1-16.529 0 8.264 8.264 0 0 1 16.529 0M11.232 24.774a8.232 8.232 0 1 0 0 16.462 8.232 8.232 0 0 0 0-16.462M32.385 24.773c-4.447 0-8.053 3.685-8.053 8.232 0 4.546 3.606 8.231 8.053 8.231 4.447 0 8.053-3.685 8.053-8.231 0-4.547-3.606-8.232-8.053-8.232"/></g></svg>