<svg xmlns="http://www.w3.org/2000/svg" height="31" fill="currentColor" class="h-full w-auto text-gray-500" viewBox="0 0 106 31"><g clip-path="url(#a)"><path d="M11.57 5.63v8.4H3.84v-8.4H.17V25.7h3.67v-8.14h7.73v8.14h3.66V5.63h-3.66ZM26.97 19.22a3.03 3.03 0 1 1-6.07 0v-8.6h-3.48v8.6a6.5 6.5 0 1 0 13.02 0v-8.6h-3.47v8.6ZM52.74 11.5c0-1.76 1.17-2.32 2.45-2.32 1.02 0 2.39.78 3.27 1.73l2.28-2.68a7.18 7.18 0 0 0-5.33-2.6c-3.77 0-6.5 2.2-6.5 5.87 0 6.8 8.3 4.64 8.3 8.45 0 1.17-1.13 2.2-2.44 2.2-2.06 0-2.72-1-3.67-2.06l-2.52 2.63a7.46 7.46 0 0 0 6 2.99c3.58 0 6.46-2.24 6.46-5.73 0-7.55-8.3-5.2-8.3-8.48M104.14 22.5c-2.06 0-2.64-.9-2.64-2.25v-6.03h3.2v-3.06h-3.2V7.13l-3.53 1.59V21c0 3.14 2.17 4.72 5.14 4.72.47 0 .94-.03 1.4-.11l.85-3.17c-.38.03-.83.05-1.22.05M40.2 10.72c-1.71 0-2.92.5-4.08 1.64V5.75h-3.48V18c0 4.58 3.31 7.72 7.04 7.72 4.13 0 7.77-3.2 7.77-7.5 0-4.25-3.35-7.5-7.24-7.5Zm-.01 11.5a3.95 3.95 0 1 1 0-7.9 3.95 3.95 0 0 1 0 7.9ZM78.04 18.04c0-4.31-3.63-7.5-7.77-7.5-3.72 0-7.04 3.14-7.04 7.72v12.26h3.49V23.9a5.34 5.34 0 0 0 4.08 1.64 7.37 7.37 0 0 0 7.24-7.5Zm-3.3-.04a3.95 3.95 0 1 1-7.9 0 3.95 3.95 0 0 1 7.9 0Z"/><path d="M89.3 10.37v-3.5a2.7 2.7 0 0 0 1.55-2.43v-.08a2.7 2.7 0 0 0-2.7-2.7h-.08a2.7 2.7 0 0 0-2.7 2.7v.08a2.7 2.7 0 0 0 1.56 2.43v3.5c-1.33.2-2.58.75-3.63 1.6l-9.6-7.48a3.04 3.04 0 1 0-1.44 1.87l9.46 7.35a7.66 7.66 0 0 0 .12 8.63l-2.88 2.87a2.5 2.5 0 1 0 1.66 1.66l2.85-2.84a7.67 7.67 0 1 0 5.82-13.66Zm-1.18 11.5a3.93 3.93 0 1 1 0-7.86 3.93 3.93 0 0 1 0 7.87" opacity="var(--svg-path-opacity)"/></g><defs><clipPath id="a"><path fill="current" d="M.17.7h105.2V30.5H.16z"/></clipPath></defs></svg>