<svg xmlns="http://www.w3.org/2000/svg" width="175" height="48" fill="currentColor" class="h-full w-auto"><g fill="current"><path d="M38.682 3H6.62a5.344 5.344 0 0 0-5.344 5.344v32.06a5.344 5.344 0 0 0 5.344 5.344h32.06a5.344 5.344 0 0 0 5.344-5.343V8.344A5.344 5.344 0 0 0 38.682 3zM28.35 10.838a1.426 1.426 0 0 1 2.85 0v19.037a1.426 1.426 0 0 1-2.85 0zm-7.124-.722a1.426 1.426 0 0 1 2.85 0v20.662a1.426 1.426 0 0 1-2.85 0zm-7.124.722a1.426 1.426 0 0 1 2.849 0v19.037a1.425 1.425 0 1 1-2.85 0zm-7.125 2.849a1.425 1.425 0 1 1 2.85 0v12.816a1.426 1.426 0 0 1-2.85 0zm30.851 21.735c-.219.19-5.498 4.618-15.177 4.618-9.678 0-14.955-4.429-15.177-4.618a1.424 1.424 0 0 1 1.85-2.166c.083.07 4.798 3.934 13.326 3.934 8.635 0 13.276-3.892 13.321-3.931a1.423 1.423 0 0 1 2.008.154 1.422 1.422 0 0 1-.15 2.009zm.497-8.919a1.426 1.426 0 0 1-2.85 0V13.687a1.425 1.425 0 1 1 2.85 0zM60.983 30.554c0 .713-.545 1.3-1.321 1.3a1.28 1.28 0 0 1-1.3-1.3V18.16c0-.713.545-1.3 1.321-1.3.755 0 1.3.588 1.3 1.3zM77.926 18.16v11.325c0 1.531-.818 2.391-2.118 2.391h-.104c-1.237 0-1.825-.713-2.348-1.762l-2.643-5.137-2.348-5.305.063 5.138.021 5.724c0 .713-.545 1.3-1.321 1.3a1.28 1.28 0 0 1-1.3-1.3V19.21c0-1.406.818-2.392 2.244-2.392h.105c1.32 0 1.866.714 2.39 1.762l2.6 5.097 2.223 4.95-.063-4.74-.02-5.725c0-.713.544-1.3 1.32-1.3a1.277 1.277 0 0 1 1.299 1.299zM88.432 30.534c0 .713-.545 1.3-1.32 1.3a1.28 1.28 0 0 1-1.3-1.3V19.315h-3.25c-.671 0-1.216-.504-1.216-1.237 0-.713.545-1.216 1.215-1.216h9.122c.67 0 1.215.504 1.215 1.237 0 .714-.545 1.216-1.215 1.216h-3.25zM96.317 30.114V18.476c0-1.09.608-1.698 1.72-1.656h7.548c.67 0 1.216.523 1.216 1.237 0 .713-.545 1.215-1.216 1.215h-6.669v3.607h5.893c.65 0 1.174.482 1.174 1.174s-.523 1.175-1.174 1.175h-5.893v4.152h6.67c.67 0 1.215.523 1.215 1.237s-.545 1.215-1.216 1.215h-7.612c-1.09.002-1.698-.606-1.656-1.718zM121.69 30.134c.357.608.126 1.384-.607 1.762-.714.357-1.49.085-1.845-.523l-2.915-5.39h-2.768l.021 4.572c0 .714-.545 1.3-1.32 1.3a1.28 1.28 0 0 1-1.3-1.3V18.476c0-1.09.607-1.698 1.719-1.656h4.97c3.418 0 4.843 2.223 4.843 4.487 0 2.16-1.258 3.754-3.419 4.173zm-8.136-6.521h4.152c1.405 0 2.138-.902 2.138-2.182 0-1.28-.776-2.16-2.16-2.16h-4.13zM127.897 30.722c-1.572-1.405-2.286-3.607-2.286-6.375 0-2.789.692-4.97 2.245-6.353.964-.839 2.264-1.405 4.151-1.405 1.657 0 2.937.378 3.901 1.195.84.67 1.447 1.615 1.804 2.936.188.692-.294 1.384-1.09 1.531-.755.126-1.363-.356-1.594-1.048-.251-.67-.588-1.153-.986-1.49-.545-.482-1.216-.692-2.097-.692-.943 0-1.762.273-2.37.88-.88.88-1.259 2.455-1.259 4.446 0 1.972.357 3.544 1.28 4.425.608.608 1.406.88 2.327.88.965 0 1.698-.251 2.307-.817.314-.294.588-.671.776-1.112.273-.65.84-1.133 1.573-.964.733.168 1.195.88.964 1.572-.378 1.153-1.027 2.076-1.907 2.705-.965.692-2.16 1.049-3.67 1.049-1.929 0-3.146-.567-4.07-1.363zM140.668 24.347c0-4.697 1.929-7.758 6.48-7.758 4.509 0 6.46 2.977 6.46 7.758 0 4.844-1.973 7.76-6.46 7.76-4.571 0-6.48-2.916-6.48-7.76zm10.254 0c0-3.565-1.3-5.304-3.795-5.304-2.454 0-3.754 1.74-3.754 5.304 0 3.566 1.258 5.305 3.754 5.305 2.474 0 3.795-1.74 3.795-5.305zM173.947 30.534c0 .713-.545 1.3-1.32 1.3a1.28 1.28 0 0 1-1.3-1.3v-5.62l.062-5.473-1.825 5.557-1.845 5.473c-.313.964-.964 1.343-1.782 1.343-.86 0-1.49-.399-1.824-1.363l-1.888-5.452-1.74-5.473.062 5.39v5.62c0 .712-.545 1.299-1.321 1.299a1.28 1.28 0 0 1-1.3-1.3V19.316c0-1.552.84-2.454 2.307-2.454 1.384 0 2.16.734 2.6 2.076l1.929 5.725 1.174 3.9 1.196-3.9 1.929-5.725c.44-1.342 1.195-2.076 2.58-2.076 1.467 0 2.285.88 2.285 2.454z"/></g></svg>