<svg xmlns="http://www.w3.org/2000/svg" width="97" height="48" fill="currentColor" class="h-full w-auto"><clipPath id="a"><path d="M0 0h97v48H0z"/></clipPath><g fill="current" clip-path="url(#a)"><path fill-rule="evenodd" d="M52.513 4v5.42l-6.763 1.443V5.415zm14.066 8.438c-2.64 0-4.338 1.228-5.281 2.082l-.35-1.655H55.02V44l6.736-1.415.027-7.557c.97.694 2.398 1.682 4.769 1.682 4.823 0 9.215-3.845 9.215-12.31-.027-7.744-4.473-11.963-9.188-11.963zm-1.617 18.398c-1.59 0-2.533-.561-3.18-1.255l-.026-9.907c.7-.774 1.67-1.308 3.206-1.308 2.452 0 4.15 2.723 4.15 6.221 0 3.578-1.671 6.249-4.15 6.249zM97 24.667c0-6.836-3.34-12.23-9.727-12.23-6.412 0-10.292 5.394-10.292 12.177 0 8.037 4.58 12.096 11.155 12.096 3.206 0 5.63-.72 7.463-1.736v-5.34c-1.832.908-3.934 1.469-6.601 1.469-2.614 0-4.931-.908-5.227-4.06h13.175c0-.146.01-.477.021-.86v-.007c.015-.524.033-1.14.033-1.509zM83.69 22.13c0-3.017 1.859-4.272 3.556-4.272 1.644 0 3.395 1.255 3.395 4.272zm-31.177-9.24H45.75v23.365h6.763zm-14.439.003.431 1.976c1.59-2.884 4.742-2.296 5.605-1.976v6.142c-.836-.294-3.53-.668-5.12 1.388v15.835h-6.736V12.893zM25.031 7.098l-6.574 1.388-.027 21.389c0 3.952 2.99 6.862 6.978 6.862 2.21 0 3.827-.4 4.716-.88v-5.421c-.863.347-5.12 1.575-5.12-2.377v-9.48h5.12v-5.687h-5.12zM9.107 18.232c-1.428 0-2.29.4-2.29 1.442 0 1.137 1.484 1.637 3.325 2.258 3.001 1.011 6.951 2.343 6.968 7.275 0 4.78-3.853 7.53-9.458 7.53-2.317 0-4.85-.454-7.356-1.522V28.86c2.264 1.228 5.12 2.136 7.356 2.136 1.51 0 2.587-.4 2.587-1.63 0-1.259-1.609-1.834-3.55-2.53C3.73 25.779 0 24.444 0 19.995c0-4.726 3.638-7.557 9.107-7.557 2.237 0 4.446.348 6.683 1.229v6.275c-2.048-1.095-4.635-1.709-6.683-1.709z" clip-rule="evenodd"/></g></svg>